<svg xmlns="http://www.w3.org/2000/svg" xmlns:xlink="http://www.w3.org/1999/xlink" width="24" height="24" viewBox="0 0 24 24">
  <defs>
    <clipPath id="clip-SOD_">
      <rect width="24" height="24"/>
    </clipPath>
  </defs>
  <g id="SOD_" data-name="SOD " clip-path="url(#clip-SOD_)">
    <path id="Path_127" data-name="Path 127" d="M-2305.94-870h-.114v-.007a1.049,1.049,0,0,1-.885-.993l-.019-4.862.019-1.138c-.04,0-.078,0-.117,0a2.982,2.982,0,0,1-2.212-1,3.9,3.9,0,0,1-.669-1s0,0,0-.005h3l-.012-.023c-.225-.457-.961-1.949-.988-1.976a3.857,3.857,0,0,0,.506-1.676c-2.872,1.488-3.249,3.361-3.218,4.345.219.281.458.561.712.831.195.208.387.4.574.592.8.813,1.437,1.456,1.49,2.321.059.934-.578,2.041-2.064,3.586,0-.011.021-.045.045-.091a4.31,4.31,0,0,0,.475-3.455,4.386,4.386,0,0,0-2.52-2.453,6.356,6.356,0,0,1-2.866-3.064,4.291,4.291,0,0,1-.134-2.936,12.168,12.168,0,0,1,3-5c-.008,0-.025.009-.054.017-1,.29-3.469,1.453-4.942,5.98a11.749,11.749,0,0,1,.654-4.152,6.9,6.9,0,0,1,2.1-3.1,6.133,6.133,0,0,1,2.262-.976c1.377-.383,2.678-.745,2.988-2.774a4.536,4.536,0,0,1,.161.868A7.619,7.619,0,0,1-2310.8-886a4.885,4.885,0,0,0-1.344,4.838,7.849,7.849,0,0,1,5.009-4.511c.192-2.973.194-6.293.194-6.327l.932-1.864v0h0l.066-.133h.01l.1.208,0,0v.008l.891,1.781c0,.033,0,3.354.194,6.327a7.851,7.851,0,0,1,5.009,4.511,4.887,4.887,0,0,0-1.344-4.838,7.621,7.621,0,0,1-2.021-6.132,4.511,4.511,0,0,1,.162-.868c.311,2.029,1.611,2.391,2.988,2.774a6.131,6.131,0,0,1,2.262.976,6.9,6.9,0,0,1,2.1,3.1,11.762,11.762,0,0,1,.654,4.152c-1.474-4.526-3.948-5.69-4.943-5.98l-.054-.017a12.166,12.166,0,0,1,3,5,4.289,4.289,0,0,1-.134,2.936A6.36,6.36,0,0,1-2299.93-877a4.387,4.387,0,0,0-2.52,2.453,4.311,4.311,0,0,0,.475,3.455c.024.046.042.08.045.091-1.487-1.546-2.123-2.652-2.065-3.586.054-.866.688-1.508,1.49-2.322.187-.189.379-.384.574-.592.253-.27.493-.549.711-.831.031-.984-.346-2.857-3.218-4.345a3.862,3.862,0,0,0,.506,1.676c-.027.027-.763,1.519-.988,1.976l-.012.024h3a.012.012,0,0,1,0,0,3.9,3.9,0,0,1-.669,1,2.984,2.984,0,0,1-2.212,1l-.117,0,.019,1.138-.019,4.862a1.05,1.05,0,0,1-.875.992V-870h-.135Zm-7.52-1.673c-.087-.075-.163-.139-.229-.186a6.546,6.546,0,0,0,3.421-1.922,3.05,3.05,0,0,1-.672,2.352,1.959,1.959,0,0,1-1.134.421A2.155,2.155,0,0,1-2313.46-871.673Zm12.53.243a3.053,3.053,0,0,1-.672-2.352,6.555,6.555,0,0,0,3.422,1.922c-.066.047-.142.111-.229.186a2.159,2.159,0,0,1-1.387.665A1.957,1.957,0,0,1-2300.93-871.43Zm-14.817-2.418a7.876,7.876,0,0,1-.875-1.755l0-.013a4.726,4.726,0,0,0,2.37.6,7.043,7.043,0,0,0,1.849-.269c.206-.055.388-.112.534-.157a2.229,2.229,0,0,1,.434-.111l.023,0c.254.057.693.618.779.73l0,0a6.059,6.059,0,0,1-3.187,1.961,2.085,2.085,0,0,1-.209.011A2.106,2.106,0,0,1-2315.746-873.848Zm17.7,1a6.061,6.061,0,0,1-3.187-1.961l0,0c.085-.112.524-.673.779-.73l.023,0a2.215,2.215,0,0,1,.435.112c.146.045.328.1.534.157a7.038,7.038,0,0,0,1.849.269,4.726,4.726,0,0,0,2.37-.6l0,.013a7.893,7.893,0,0,1-.875,1.755,2.108,2.108,0,0,1-1.716,1.008A2.077,2.077,0,0,1-2298.047-872.852Zm-18.375-3.892a3.1,3.1,0,0,1-.526-2.566.733.733,0,0,0,.009-.077,4.283,4.283,0,0,0,1.929,1,.122.122,0,0,1,.015.022l0,0a7.292,7.292,0,0,0,2.389,2.109,7.39,7.39,0,0,1-1.819.266A2.524,2.524,0,0,1-2316.422-876.744Zm17.156.486a7.305,7.305,0,0,0,2.39-2.109l0,0a.1.1,0,0,1,.015-.021,4.288,4.288,0,0,0,1.93-1,.581.581,0,0,0,.009.077,3.093,3.093,0,0,1-.526,2.565,2.524,2.524,0,0,1-2,.752A7.417,7.417,0,0,1-2299.266-876.258ZM-2305.929-894h0Zm-.011,0h0Z" transform="translate(2317.935 894)" fill="#000"/>
  </g>
</svg>
